<svg xmlns="http://www.w3.org/2000/svg" version="1.1" xmlns:xlink="http://www.w3.org/1999/xlink" xmlns:svgjs="http://svgjs.dev/svgjs" width="1500" height="390" viewBox="0 0 1500 390"><g transform="matrix(1,0,0,1,-1.8351063829786654,-0.37133571428572054)"><svg viewBox="0 0 376 98" data-background-color="#ffffff" preserveAspectRatio="xMidYMid meet" height="390" width="1500" xmlns="http://www.w3.org/2000/svg" xmlns:xlink="http://www.w3.org/1999/xlink"><g id="tight-bounds" transform="matrix(1,0,0,1,0.46023999999999887,0.09331000000000245)"><svg viewBox="0 0 375.07953 97.81337999999998" height="97.81337999999998" width="375.07953"><g><svg></svg></g><g><svg viewBox="0 0 375.07953 97.81337999999998" height="97.81337999999998" width="375.07953"><g transform="matrix(1,0,0,1,-10.22024,-79.91786)"><path d="M10.22 167.282v-87.364h375.08v87.364l-70.622 0 0-3.254h67.367v-80.856h-368.57v80.856l67.367 0 0 3.254z" fill="#ff511a" fill-rule="nonzero" stroke="none" stroke-width="1" stroke-linecap="butt" stroke-linejoin="miter" stroke-miterlimit="10" stroke-dasharray="" stroke-dashoffset="0" font-family="none" font-weight="none" font-size="none" text-anchor="none" style="mix-blend-mode: normal" data-fill-palette-color="tertiary"></path><g><path d="M100.3 156.503h-7.692v5.467h6.988v1.766h-6.988v7.741h-2.003v-16.741h9.695zM111.709 169.074v-9.237h1.93v11.64h-1.356l-0.41-0.98c-1.486 0.811-2.857 1.216-4.112 1.216v0c-0.637 0-1.192-0.1-1.665-0.299-0.47-0.203-0.835-0.452-1.095-0.748-0.257-0.299-0.465-0.679-0.623-1.139-0.158-0.46-0.257-0.898-0.299-1.312-0.045-0.418-0.068-0.894-0.067-1.429v0-6.949h1.935v7.094c0 2.033 0.883 3.05 2.649 3.05v0c0.91 0 1.948-0.302 3.113-0.907zM118.117 171.477v-17.802h1.931v17.802zM124.762 171.477v-17.802h1.931v17.802zM138.724 154.582v0c1.287 0 2.673 0.224 4.159 0.671v0l-0.651 1.829c-1.412-0.409-2.636-0.613-3.673-0.613v0c-1.165 0-2.149 0.245-2.953 0.733-0.804 0.492-1.206 1.128-1.206 1.906v0c0 0.431 0.129 0.816 0.386 1.154 0.261 0.338 0.603 0.613 1.028 0.825 0.425 0.212 0.907 0.421 1.447 0.627 0.54 0.209 1.092 0.401 1.656 0.575 0.563 0.171 1.115 0.389 1.655 0.656 0.54 0.267 1.023 0.56 1.448 0.878 0.425 0.319 0.767 0.734 1.027 1.245 0.257 0.512 0.386 1.089 0.387 1.733v0c0 0.447-0.071 0.893-0.213 1.337-0.142 0.444-0.376 0.883-0.704 1.317-0.331 0.438-0.74 0.82-1.226 1.149-0.486 0.331-1.1 0.598-1.844 0.801-0.743 0.206-1.57 0.309-2.48 0.308-0.91 0-1.749-0.095-2.514-0.284-0.766-0.187-1.625-0.47-2.577-0.85v0l0.685-1.94c1.962 0.73 3.513 1.095 4.652 1.096v0c1.194 0 2.165-0.24 2.915-0.719 0.753-0.479 1.129-1.12 1.129-1.921v0c0-0.534-0.167-0.996-0.502-1.385-0.335-0.389-0.767-0.703-1.298-0.941-0.528-0.241-1.115-0.466-1.761-0.675-0.643-0.206-1.285-0.429-1.926-0.671-0.64-0.238-1.226-0.515-1.756-0.83-0.528-0.312-0.959-0.735-1.294-1.27-0.335-0.537-0.502-1.166-0.502-1.886v0c0-0.643 0.154-1.26 0.464-1.849 0.312-0.592 0.743-1.108 1.293-1.549 0.55-0.444 1.237-0.798 2.061-1.061 0.824-0.264 1.72-0.396 2.688-0.396zM153.119 169.957l0.27 1.317c-1.139 0.293-2.025 0.439-2.659 0.439-0.637 0-1.176-0.103-1.617-0.308-0.441-0.203-0.774-0.492-0.998-0.869-0.228-0.38-0.393-0.787-0.493-1.221-0.097-0.434-0.145-0.935-0.144-1.501v0-6.457h-1.569v-1.52h1.569v-3.334h1.93v3.334h3.547v1.52h-3.547v6.433c0 1.609 0.637 2.413 1.911 2.413v0c0.225 0 0.825-0.082 1.8-0.246zM160.189 159.615v0c0.865 0 1.597 0.1 2.195 0.299 0.602 0.199 1.065 0.492 1.39 0.879 0.328 0.383 0.563 0.811 0.705 1.283 0.142 0.47 0.212 1.012 0.212 1.627v0 7.774h-1.37l-0.444-1.062c-0.952 0.865-2.045 1.298-3.277 1.298v0c-1.1 0-2.032-0.331-2.794-0.994-0.762-0.666-1.144-1.443-1.144-2.331v0c0-0.47 0.087-0.893 0.261-1.269 0.174-0.38 0.423-0.695 0.748-0.946 0.328-0.251 0.7-0.465 1.114-0.641 0.415-0.177 0.899-0.312 1.453-0.406 0.557-0.093 1.113-0.159 1.67-0.198 0.557-0.042 1.169-0.063 1.838-0.062v0-0.917c0-0.267-0.01-0.499-0.029-0.695-0.019-0.196-0.085-0.433-0.197-0.71-0.109-0.273-0.257-0.499-0.444-0.675-0.19-0.177-0.473-0.33-0.85-0.459-0.376-0.129-0.825-0.193-1.346-0.193v0c-0.801 0-1.837 0.175-3.108 0.526v0l-0.367-1.414c1.29-0.476 2.551-0.714 3.784-0.714zM162.746 169.001v-2.673h-0.719c-0.447 0-0.836 0.008-1.167 0.024-0.328 0.016-0.714 0.061-1.159 0.135-0.444 0.074-0.808 0.179-1.09 0.314-0.283 0.132-0.524 0.327-0.724 0.584-0.203 0.254-0.304 0.558-0.304 0.912v0c0 0.495 0.249 0.935 0.748 1.317 0.499 0.386 1.094 0.579 1.785 0.579v0c1.013 0 1.89-0.397 2.63-1.192zM168.339 165.927v0c0-0.92 0.111-1.747 0.333-2.48 0.219-0.734 0.512-1.334 0.879-1.8 0.364-0.47 0.793-0.859 1.288-1.168 0.495-0.309 1.002-0.529 1.52-0.661 0.518-0.129 1.06-0.193 1.627-0.193v0c1.116 0 2.204 0.232 3.262 0.695v0l-0.473 1.414c-0.872-0.299-1.723-0.449-2.553-0.449v0c-0.409 0-0.795 0.037-1.158 0.111-0.36 0.077-0.719 0.214-1.076 0.41-0.357 0.196-0.663 0.449-0.917 0.758-0.257 0.312-0.465 0.719-0.623 1.221-0.154 0.502-0.232 1.079-0.231 1.732v0c0 0.714 0.082 1.343 0.246 1.887 0.164 0.547 0.38 0.989 0.647 1.327 0.267 0.338 0.587 0.613 0.96 0.825 0.373 0.212 0.75 0.36 1.129 0.444 0.383 0.08 0.795 0.121 1.236 0.121v0c0.737 0 1.475-0.129 2.215-0.386v0l0.468 1.332c-1.113 0.431-2.233 0.647-3.359 0.646v0c-0.518 0-1.013-0.051-1.486-0.154-0.476-0.103-0.96-0.29-1.453-0.56-0.489-0.27-0.912-0.614-1.269-1.032-0.357-0.415-0.648-0.97-0.874-1.665-0.225-0.695-0.338-1.486-0.338-2.375zM180.722 171.477v-17.802h1.936v17.802zM182.846 165.044l5.135-5.443h2.133l-5.068 5.241 5.376 6.635h-2.321zM199.915 156.503h-3.248v13.208h2.437c0.354 0 0.647-0.005 0.878-0.015 0.232-0.006 0.545-0.029 0.941-0.067 0.396-0.042 0.738-0.101 1.028-0.179 0.286-0.077 0.611-0.191 0.975-0.342 0.367-0.148 0.692-0.328 0.975-0.541 0.28-0.212 0.561-0.483 0.844-0.811 0.283-0.331 0.531-0.705 0.744-1.119v0c0.518-0.997 0.777-2.212 0.776-3.644v0c0-0.988-0.143-1.88-0.429-2.678-0.286-0.798-0.668-1.446-1.144-1.945-0.473-0.499-0.98-0.893-1.52-1.182-0.537-0.293-1.1-0.489-1.689-0.589v0c-0.344-0.064-0.867-0.097-1.568-0.096zM194.664 154.736h5.183c1.084 0 2.07 0.108 2.958 0.324 0.885 0.216 1.628 0.52 2.23 0.912 0.602 0.393 1.118 0.836 1.549 1.332 0.431 0.495 0.767 1.047 1.009 1.655 0.238 0.608 0.413 1.206 0.526 1.795 0.109 0.589 0.164 1.202 0.164 1.839v0c0 0.73-0.055 1.433-0.164 2.109-0.113 0.676-0.304 1.362-0.575 2.06-0.27 0.701-0.616 1.329-1.037 1.882-0.418 0.553-0.962 1.052-1.631 1.496-0.666 0.444-1.424 0.772-2.273 0.985v0c-0.441 0.109-0.931 0.191-1.472 0.246-0.544 0.055-0.991 0.087-1.342 0.096-0.354 0.006-0.854 0.01-1.501 0.01v0h-3.624zM217.292 159.615v0c0.566 0 1.076 0.068 1.53 0.203 0.45 0.138 0.825 0.314 1.125 0.526 0.299 0.212 0.557 0.489 0.772 0.83 0.216 0.341 0.38 0.671 0.492 0.989 0.116 0.319 0.204 0.701 0.265 1.149 0.064 0.447 0.105 0.836 0.121 1.168 0.013 0.328 0.019 0.717 0.019 1.167v0 0.917h-7.996c0 0.425 0.097 0.846 0.29 1.265 0.19 0.421 0.46 0.808 0.81 1.158 0.351 0.347 0.811 0.632 1.38 0.854 0.569 0.219 1.198 0.328 1.887 0.328v0c0.817 0 1.702-0.142 2.655-0.424v0l0.342 1.322c-1.264 0.431-2.506 0.647-3.725 0.646v0c-0.856 0-1.615-0.114-2.278-0.342-0.666-0.228-1.2-0.524-1.602-0.888-0.405-0.367-0.738-0.806-0.999-1.318-0.257-0.508-0.436-1.017-0.536-1.525-0.097-0.505-0.145-1.041-0.145-1.607v0c0-0.872 0.106-1.67 0.319-2.393 0.212-0.721 0.499-1.327 0.859-1.819 0.36-0.489 0.782-0.902 1.264-1.241 0.486-0.338 0.993-0.584 1.52-0.738 0.531-0.151 1.075-0.227 1.631-0.227zM216.882 161.285v0c-0.692 0-1.287 0.191-1.785 0.574-0.499 0.38-0.862 0.853-1.091 1.419-0.228 0.566-0.343 1.174-0.343 1.824v0h6.081c0-2.545-0.954-3.817-2.862-3.817zM232.079 159.837h2.002l-4.087 11.64h-2.003l-4.073-11.64h2.119l3.016 9.719zM241.976 159.615v0c0.566 0 1.075 0.068 1.525 0.203 0.454 0.138 0.83 0.314 1.13 0.526 0.296 0.212 0.552 0.489 0.767 0.83 0.219 0.341 0.384 0.671 0.497 0.989 0.113 0.319 0.201 0.701 0.265 1.149 0.061 0.447 0.1 0.836 0.116 1.168 0.016 0.328 0.024 0.717 0.024 1.167v0 0.917h-8.001c0 0.425 0.097 0.846 0.29 1.265 0.193 0.421 0.465 0.808 0.815 1.158 0.347 0.347 0.806 0.632 1.376 0.854 0.569 0.219 1.2 0.328 1.891 0.328v0c0.817 0 1.702-0.142 2.655-0.424v0l0.337 1.322c-1.264 0.431-2.505 0.647-3.72 0.646v0c-0.856 0-1.617-0.114-2.283-0.342-0.663-0.228-1.197-0.524-1.602-0.888-0.402-0.367-0.734-0.806-0.994-1.318-0.257-0.508-0.436-1.017-0.536-1.525-0.097-0.505-0.145-1.041-0.145-1.607v0c0-0.872 0.105-1.67 0.314-2.393 0.212-0.721 0.5-1.327 0.864-1.819 0.36-0.489 0.782-0.902 1.264-1.241 0.483-0.338 0.989-0.584 1.52-0.738 0.531-0.151 1.075-0.227 1.631-0.227zM241.566 161.285v0c-0.692 0-1.287 0.191-1.785 0.574-0.499 0.38-0.862 0.853-1.091 1.419-0.228 0.566-0.343 1.174-0.343 1.824v0h6.081c0-2.545-0.954-3.817-2.862-3.817zM250.19 171.477v-17.802h1.93v17.802zM261.675 159.615v0c1.612 0 2.937 0.513 3.977 1.54 1.042 1.03 1.564 2.452 1.563 4.266v0c0 1.924-0.532 3.454-1.597 4.589-1.065 1.136-2.442 1.704-4.131 1.703v0c-1.609 0-2.924-0.532-3.947-1.597-1.02-1.065-1.53-2.508-1.53-4.329v0c0-1.879 0.52-3.378 1.559-4.497 1.042-1.116 2.411-1.675 4.106-1.675zM261.511 161.261v0c-0.965 0-1.81 0.373-2.533 1.119-0.721 0.746-1.081 1.771-1.081 3.074v0c0 1.297 0.352 2.389 1.057 3.277 0.708 0.888 1.623 1.332 2.745 1.332v0c1.036 0 1.9-0.393 2.592-1.177 0.692-0.785 1.038-1.81 1.037-3.074v0c0-0.724-0.113-1.38-0.337-1.969-0.222-0.589-0.516-1.068-0.883-1.439-0.364-0.37-0.769-0.653-1.217-0.849-0.447-0.196-0.907-0.294-1.38-0.294zM275.955 159.615v0c0.479 0 0.947 0.056 1.404 0.169 0.454 0.113 0.91 0.312 1.371 0.598 0.46 0.29 0.861 0.651 1.201 1.086 0.341 0.438 0.621 1.005 0.84 1.704 0.216 0.698 0.323 1.483 0.323 2.355v0c0 1.908-0.508 3.417-1.525 4.526-1.02 1.107-2.339 1.66-3.957 1.66v0c-0.927 0-1.864-0.209-2.813-0.627v0 6.645h-1.93v-17.894h1.341l0.319 0.743c1.1-0.643 2.242-0.965 3.426-0.965zM275.294 161.217v0c-0.856 0-1.687 0.216-2.495 0.647v0 7.765c0.84 0.376 1.684 0.565 2.533 0.564v0c0.36 0 0.709-0.04 1.048-0.12 0.338-0.077 0.682-0.22 1.032-0.43 0.347-0.206 0.651-0.466 0.912-0.782 0.261-0.315 0.473-0.732 0.637-1.249 0.164-0.518 0.246-1.103 0.247-1.757v0c0-0.737-0.087-1.388-0.261-1.955-0.171-0.566-0.389-1.013-0.656-1.341-0.267-0.331-0.582-0.603-0.946-0.816-0.36-0.212-0.706-0.352-1.038-0.419-0.328-0.071-0.666-0.106-1.013-0.107zM289.742 159.615v0c0.563 0 1.071 0.068 1.525 0.203 0.45 0.138 0.825 0.314 1.125 0.526 0.299 0.212 0.557 0.489 0.772 0.83 0.216 0.341 0.38 0.671 0.492 0.989 0.116 0.319 0.204 0.701 0.265 1.149 0.064 0.447 0.105 0.836 0.121 1.168 0.016 0.328 0.024 0.717 0.024 1.167v0 0.917h-8.001c0 0.425 0.097 0.846 0.29 1.265 0.193 0.421 0.463 0.808 0.81 1.158 0.351 0.347 0.811 0.632 1.38 0.854 0.569 0.219 1.2 0.328 1.892 0.328v0c0.817 0 1.7-0.142 2.649-0.424v0l0.343 1.322c-1.264 0.431-2.506 0.647-3.725 0.646v0c-0.856 0-1.615-0.114-2.278-0.342-0.663-0.228-1.197-0.524-1.602-0.888-0.405-0.367-0.737-0.806-0.994-1.318-0.261-0.508-0.439-1.017-0.536-1.525-0.1-0.505-0.15-1.041-0.15-1.607v0c0-0.872 0.106-1.67 0.319-2.393 0.212-0.721 0.499-1.327 0.859-1.819 0.36-0.489 0.783-0.902 1.269-1.241 0.483-0.338 0.989-0.584 1.52-0.738 0.528-0.151 1.071-0.227 1.631-0.227zM289.327 161.285v0c-0.692 0-1.287 0.191-1.785 0.574-0.499 0.38-0.861 0.853-1.086 1.419-0.228 0.566-0.343 1.174-0.343 1.824v0h6.076c0-2.545-0.954-3.817-2.862-3.817zM299.07 159.837l0.367 0.874c0.981-0.73 2.065-1.095 3.253-1.096v0c0.817 0 1.559 0.153 2.225 0.459v0l-0.589 1.544c-0.611-0.238-1.247-0.357-1.906-0.357v0c-0.984 0-1.908 0.272-2.77 0.815v0 9.401h-1.936v-11.64z" fill="#ff4900" fill-rule="nonzero" stroke="none" stroke-width="1" stroke-linecap="butt" stroke-linejoin="miter" stroke-miterlimit="10" stroke-dasharray="" stroke-dashoffset="0" font-family="none" font-weight="none" font-size="none" text-anchor="none" style="mix-blend-mode: normal" data-fill-palette-color="secondary" id="text-1"></path></g></g><g transform="matrix(1,0,0,1,29.33176499999999,30.86294598855916)"><svg viewBox="0 0 316.416 36.08748802288166" height="36.08748802288166" width="316.416"><g><svg viewBox="0 0 316.416 36.08748802288166" height="36.08748802288166" width="316.416"><g><svg viewBox="0 0 316.416 36.08748802288166" height="36.08748802288166" width="316.416"><g id="textblocktransform"><svg viewBox="0 0 316.416 36.08748802288166" height="36.08748802288166" width="316.416" id="textblock"><g><svg viewBox="0 0 316.416 36.08748802288166" height="36.08748802288166" width="316.416"><g transform="matrix(1,0,0,1,0,0)"><svg width="316.416" viewBox="3.17 -38.43 341.40999999999997 38.94" height="36.08748802288166" data-palette-color="#ff4900"><path d="M3.17 0L3.17-36.38 12.65-36.38 22.66-11.94 23.07-11.94 33.11-36.38 42.65-36.38 42.65 0 35.11 0 35.11-23.68 34.84-23.68 25.39-0.17 20.29-0.17 10.94-23.73 10.62-23.73 10.62 0 3.17 0ZM56.61 0.51L56.61 0.51Q52.71 0.51 50.13-1.53 47.56-3.56 47.56-7.62L47.56-7.62Q47.56-10.67 48.98-12.41 50.41-14.16 52.76-14.98 55.1-15.8 57.79-16.04L57.79-16.04Q61.35-16.38 62.88-16.76 64.4-17.14 64.4-18.46L64.4-18.46 64.4-18.58Q64.4-20.26 63.33-21.19 62.25-22.12 60.23-22.12L60.23-22.12Q58.2-22.12 56.92-21.24 55.64-20.36 55.22-18.99L55.22-18.99 48.34-20.09Q49.31-23.66 52.45-25.65 55.59-27.64 60.25-27.64L60.25-27.64Q63.28-27.64 65.95-26.68 68.63-25.73 70.29-23.69 71.95-21.66 71.95-18.41L71.95-18.41 71.95 0 64.79 0 64.79-3.81 64.57-3.81Q63.57-1.88 61.61-0.68 59.64 0.51 56.61 0.51ZM54.76-7.86L54.76-7.86Q54.76-6.3 55.89-5.51 57.03-4.71 58.76-4.71L58.76-4.71Q61.25-4.71 62.85-6.15 64.45-7.59 64.45-9.74L64.45-9.74 64.45-12.65Q64.01-12.35 63.07-12.11 62.13-11.87 61.08-11.71 60.03-11.55 59.2-11.43L59.2-11.43Q57.2-11.13 55.98-10.29 54.76-9.45 54.76-7.86ZM85.57-15.77L85.57-15.77 85.57 0 78 0 78-27.29 85.44-27.29 85.44-22.44 85.71-22.44Q86.64-24.83 88.67-26.23 90.69-27.64 93.72-27.64L93.72-27.64Q97.99-27.64 100.57-24.89 103.14-22.14 103.14-17.36L103.14-17.36 103.14 0 95.58 0 95.58-16.02Q95.58-18.53 94.29-19.95 93.01-21.36 90.74-21.36L90.74-21.36Q88.45-21.36 87.01-19.89 85.57-18.41 85.57-15.77ZM116.76 0L109.2 0 109.2-27.29 116.76-27.29 116.76 0ZM112.98-30.79L112.98-30.79Q111.3-30.79 110.09-31.91 108.88-33.03 108.88-34.62L108.88-34.62Q108.88-36.21 110.09-37.32 111.3-38.43 112.98-38.43L112.98-38.43Q114.67-38.43 115.87-37.32 117.08-36.21 117.08-34.62L117.08-34.62Q117.08-33.03 115.87-31.91 114.67-30.79 112.98-30.79ZM122.82 0L122.82-36.38 130.39-36.38 130.39-16.92 130.8-16.92 139.52-27.29 148.21-27.29 138.1-15.45 148.7 0 139.86 0 132.44-11.01 130.39-8.69 130.39 0 122.82 0ZM159.68 0.51L159.68 0.51Q155.77 0.51 153.2-1.53 150.62-3.56 150.62-7.62L150.62-7.62Q150.62-10.67 152.05-12.41 153.48-14.16 155.82-14.98 158.17-15.8 160.85-16.04L160.85-16.04Q164.42-16.38 165.94-16.76 167.47-17.14 167.47-18.46L167.47-18.46 167.47-18.58Q167.47-20.26 166.39-21.19 165.32-22.12 163.29-22.12L163.29-22.12Q161.27-22.12 159.99-21.24 158.7-20.36 158.29-18.99L158.29-18.99 151.4-20.09Q152.38-23.66 155.52-25.65 158.65-27.64 163.32-27.64L163.32-27.64Q166.34-27.64 169.02-26.68 171.69-25.73 173.35-23.69 175.01-21.66 175.01-18.41L175.01-18.41 175.01 0 167.86 0 167.86-3.81 167.64-3.81Q166.64-1.88 164.67-0.68 162.71 0.51 159.68 0.51ZM157.82-7.86L157.82-7.86Q157.82-6.3 158.96-5.51 160.09-4.71 161.83-4.71L161.83-4.71Q164.32-4.71 165.92-6.15 167.52-7.59 167.52-9.74L167.52-9.74 167.52-12.65Q167.08-12.35 166.14-12.11 165.2-11.87 164.15-11.71 163.1-11.55 162.27-11.43L162.27-11.43Q160.27-11.13 159.05-10.29 157.82-9.45 157.82-7.86ZM188.63-15.77L188.63-15.77 188.63 0 181.06 0 181.06-27.29 188.51-27.29 188.51-22.44 188.78-22.44Q189.71-24.83 191.73-26.23 193.76-27.64 196.79-27.64L196.79-27.64Q201.06-27.64 203.63-24.89 206.21-22.14 206.21-17.36L206.21-17.36 206.21 0 198.64 0 198.64-16.02Q198.64-18.53 197.36-19.95 196.08-21.36 193.81-21.36L193.81-21.36Q191.51-21.36 190.07-19.89 188.63-18.41 188.63-15.77ZM222.25 0.44L222.25 0.44Q219.12 0.44 216.61-1.17 214.09-2.78 212.63-5.92 211.16-9.06 211.16-13.6L211.16-13.6Q211.16-18.29 212.68-21.41 214.19-24.54 216.71-26.09 219.22-27.64 222.2-27.64L222.2-27.64Q224.49-27.64 226.03-26.87 227.57-26.1 228.52-24.95 229.47-23.8 229.96-22.68L229.96-22.68 230.18-22.68 230.18-36.38 237.75-36.38 237.75 0 230.3 0 230.3-4.37 229.96-4.37Q229.45-3.25 228.47-2.14 227.5-1.03 225.97-0.29 224.45 0.44 222.25 0.44ZM230.35-13.62L230.35-13.62Q230.35-17.29 228.86-19.46 227.38-21.63 224.62-21.63L224.62-21.63Q221.81-21.63 220.36-19.41 218.9-17.19 218.9-13.62L218.9-13.62Q218.9-10.08 220.37-7.82 221.83-5.57 224.62-5.57L224.62-5.57Q227.35-5.57 228.85-7.79 230.35-10.01 230.35-13.62ZM251.59 0.51L251.59 0.51Q247.69 0.51 245.11-1.53 242.53-3.56 242.53-7.62L242.53-7.62Q242.53-10.67 243.96-12.41 245.39-14.16 247.73-14.98 250.08-15.8 252.76-16.04L252.76-16.04Q256.33-16.38 257.85-16.76 259.38-17.14 259.38-18.46L259.38-18.46 259.38-18.58Q259.38-20.26 258.31-21.19 257.23-22.12 255.2-22.12L255.2-22.12Q253.18-22.12 251.9-21.24 250.61-20.36 250.2-18.99L250.2-18.99 243.31-20.09Q244.29-23.66 247.43-25.65 250.57-27.64 255.23-27.64L255.23-27.64Q258.26-27.64 260.93-26.68 263.6-25.73 265.26-23.69 266.92-21.66 266.92-18.41L266.92-18.41 266.92 0 259.77 0 259.77-3.81 259.55-3.81Q258.55-1.88 256.58-0.68 254.62 0.51 251.59 0.51ZM249.74-7.86L249.74-7.86Q249.74-6.3 250.87-5.51 252.01-4.71 253.74-4.71L253.74-4.71Q256.23-4.71 257.83-6.15 259.43-7.59 259.43-9.74L259.43-9.74 259.43-12.65Q258.99-12.35 258.05-12.11 257.11-11.87 256.06-11.71 255.01-11.55 254.18-11.43L254.18-11.43Q252.18-11.13 250.96-10.29 249.74-9.45 249.74-7.86ZM280.54-15.77L280.54-15.77 280.54 0 272.98 0 272.98-27.29 280.42-27.29 280.42-22.44 280.69-22.44Q281.62-24.83 283.64-26.23 285.67-27.64 288.7-27.64L288.7-27.64Q292.97-27.64 295.55-24.89 298.12-22.14 298.12-17.36L298.12-17.36 298.12 0 290.55 0 290.55-16.02Q290.55-18.53 289.27-19.95 287.99-21.36 285.72-21.36L285.72-21.36Q283.42-21.36 281.98-19.89 280.54-18.41 280.54-15.77ZM323.58 0L315.91 0 315.91-36.38 330.22-36.38Q336.42-36.38 339.85-33.13 343.28-29.88 343.28-24.49L343.28-24.49Q343.28-20.75 341.62-18.1 339.96-15.45 336.86-14.14L336.86-14.14 344.58 0 336.08 0 329.2-12.89 323.58-12.89 323.58 0ZM323.58-30.08L323.58-19.07 328.78-19.07Q335.37-19.07 335.37-24.49L335.37-24.49Q335.37-27.2 333.74-28.64 332.1-30.08 328.76-30.08L328.76-30.08 323.58-30.08Z" opacity="1" transform="matrix(1,0,0,1,0,0)" fill="#ff4900" class="wordmark-text-0" data-fill-palette-color="primary" id="text-0"></path></svg></g></svg></g></svg></g></svg></g><g></g></svg></g></svg></g></svg></g><defs></defs></svg><rect width="375.07953" height="97.81337999999998" fill="none" stroke="none" visibility="hidden"></rect></g></svg></g></svg>